<svg version="1.1" viewBox="0.0 0.0 719.0314960629921 166.06036745406823" fill="none" stroke="none" stroke-linecap="square" stroke-miterlimit="10" xmlns:xlink="http://www.w3.org/1999/xlink" xmlns="http://www.w3.org/2000/svg"><clipPath id="p.0"><path d="m0 0l719.0315 0l0 166.06036l-719.0315 0l0 -166.06036z" clip-rule="nonzero"/></clipPath><g clip-path="url(#p.0)"><path fill="#000000" fill-opacity="0.0" d="m0 0l719.0315 0l0 166.06036l-719.0315 0z" fill-rule="evenodd"/><path fill="#ffffff" d="m7.4488187 10.44357l156.37794 0l0 144.91338l-156.37794 0z" fill-rule="evenodd"/><path stroke="#000000" stroke-width="1.0" stroke-linejoin="round" stroke-linecap="butt" d="m7.4488187 10.44357l156.37794 0l0 144.91338l-156.37794 0z" fill-rule="evenodd"/><path fill="#000000" fill-opacity="0.0" d="m85.826775 10.506562l-0.1889801 144.85039" fill-rule="evenodd"/><path stroke="#000000" stroke-width="1.0" stroke-linejoin="round" stroke-linecap="butt" d="m85.826775 10.506562l-0.1889801 144.85039" fill-rule="evenodd"/><path fill="#000000" fill-opacity="0.0" d="m7.4488187 10.44357l78.3937 72.566925" fill-rule="evenodd"/><path stroke="#000000" stroke-width="1.0" stroke-linejoin="round" stroke-linecap="butt" d="m7.4488187 10.44357l78.3937 72.566925" fill-rule="evenodd"/><path fill="#000000" fill-opacity="0.0" d="m20.82979 10.496769l64.97638 60.598423" fill-rule="evenodd"/><path stroke="#000000" stroke-width="1.0" stroke-linejoin="round" stroke-linecap="butt" d="m20.82979 10.496769l64.97638 60.598423" fill-rule="evenodd"/><path fill="#000000" fill-opacity="0.0" d="m33.533905 10.623117l52.18898 48.409447" fill-rule="evenodd"/><path stroke="#000000" stroke-width="1.0" stroke-linejoin="round" stroke-linecap="butt" d="m33.533905 10.623117l52.18898 48.409447" fill-rule="evenodd"/><path fill="#000000" fill-opacity="0.0" d="m72.25642 10.559278l13.51181 12.188977" fill-rule="evenodd"/><path stroke="#000000" stroke-width="1.0" stroke-linejoin="round" stroke-linecap="butt" d="m72.25642 10.559278l13.51181 12.188977" fill-rule="evenodd"/><path fill="#000000" fill-opacity="0.0" d="m163.96075 34.945827l-78.11023 -0.12598419" fill-rule="evenodd"/><path stroke="#000000" stroke-width="1.0" stroke-linejoin="round" stroke-linecap="butt" d="m163.96075 34.945827l-78.11023 -0.12598419" fill-rule="evenodd"/><path fill="#000000" fill-opacity="0.0" d="m163.89407 47.043343l-78.07874 -0.062992096" fill-rule="evenodd"/><path stroke="#000000" stroke-width="1.0" stroke-linejoin="round" stroke-linecap="butt" d="m163.89407 47.043343l-78.07874 -0.062992096" fill-rule="evenodd"/><path fill="#000000" fill-opacity="0.0" d="m163.89407 59.015842l-78.07874 0" fill-rule="evenodd"/><path stroke="#000000" stroke-width="1.0" stroke-linejoin="round" stroke-linecap="butt" d="m163.89407 59.015842l-78.07874 0" fill-rule="evenodd"/><path fill="#000000" fill-opacity="0.0" d="m163.96075 71.049515l-78.11023 0" fill-rule="evenodd"/><path stroke="#000000" stroke-width="1.0" stroke-linejoin="round" stroke-linecap="butt" d="m163.96075 71.049515l-78.11023 0" fill-rule="evenodd"/><path fill="#000000" fill-opacity="0.0" d="m164.02887 22.848312l-78.20472 -0.22047234" fill-rule="evenodd"/><path stroke="#000000" stroke-width="1.0" stroke-linejoin="round" stroke-linecap="butt" d="m164.02887 22.848312l-78.20472 -0.22047234" fill-rule="evenodd"/><path fill="#000000" fill-opacity="0.0" d="m46.643852 10.623117l39.307083 36.503937" fill-rule="evenodd"/><path stroke="#000000" stroke-width="1.0" stroke-linejoin="round" stroke-linecap="butt" d="m46.643852 10.623117l39.307083 36.503937" fill-rule="evenodd"/><path fill="#000000" fill-opacity="0.0" d="m59.48419 10.496769l26.48819 24.346455" fill-rule="evenodd"/><path stroke="#000000" stroke-width="1.0" stroke-linejoin="round" stroke-linecap="butt" d="m59.48419 10.496769l26.48819 24.346455" fill-rule="evenodd"/><path fill="#000000" fill-opacity="0.0" d="m163.82677 82.90026l-156.37794 0" fill-rule="evenodd"/><path stroke="#000000" stroke-width="1.0" stroke-linejoin="round" stroke-linecap="butt" d="m163.82677 82.90026l-156.37794 0" fill-rule="evenodd"/><path fill="#000000" fill-opacity="0.0" d="m7.5836215 22.404097l65.54331 60.44094" fill-rule="evenodd"/><path stroke="#000000" stroke-width="1.0" stroke-linejoin="round" stroke-linecap="butt" d="m7.5836215 22.404097l65.54331 60.44094" fill-rule="evenodd"/><path fill="#000000" fill-opacity="0.0" d="m72.730354 155.54593l0.25196838 -72.44094" fill-rule="evenodd"/><path stroke="#000000" stroke-width="1.0" stroke-linejoin="round" stroke-linecap="butt" d="m72.730354 155.54593l0.25196838 -72.44094" fill-rule="evenodd"/><path fill="#000000" fill-opacity="0.0" d="m59.62325 155.43155l0.25196838 -72.44094" fill-rule="evenodd"/><path stroke="#000000" stroke-width="1.0" stroke-linejoin="round" stroke-linecap="butt" d="m59.62325 155.43155l0.25196838 -72.44094" fill-rule="evenodd"/><path fill="#000000" fill-opacity="0.0" d="m7.4488187 34.439102l52.440945 48.472443" fill-rule="evenodd"/><path stroke="#000000" stroke-width="1.0" stroke-linejoin="round" stroke-linecap="butt" d="m7.4488187 34.439102l52.440945 48.472443" fill-rule="evenodd"/><path fill="#000000" fill-opacity="0.0" d="m46.516144 155.43155l0.25196838 -72.44094" fill-rule="evenodd"/><path stroke="#000000" stroke-width="1.0" stroke-linejoin="round" stroke-linecap="butt" d="m46.516144 155.43155l0.25196838 -72.44094" fill-rule="evenodd"/><path fill="#000000" fill-opacity="0.0" d="m7.4488187 46.60046l39.46457 36.503933" fill-rule="evenodd"/><path stroke="#000000" stroke-width="1.0" stroke-linejoin="round" stroke-linecap="butt" d="m7.4488187 46.60046l39.46457 36.503933" fill-rule="evenodd"/><path fill="#000000" fill-opacity="0.0" d="m33.409035 155.43155l0.25196838 -72.44094" fill-rule="evenodd"/><path stroke="#000000" stroke-width="1.0" stroke-linejoin="round" stroke-linecap="butt" d="m33.409035 155.43155l0.25196838 -72.44094" fill-rule="evenodd"/><path fill="#000000" fill-opacity="0.0" d="m7.4488187 58.88816l26.236221 24.09449" fill-rule="evenodd"/><path stroke="#000000" stroke-width="1.0" stroke-linejoin="round" stroke-linecap="butt" d="m7.4488187 58.88816l26.236221 24.09449" fill-rule="evenodd"/><path fill="#000000" fill-opacity="0.0" d="m20.30193 155.43155l0.25196838 -72.44094" fill-rule="evenodd"/><path stroke="#000000" stroke-width="1.0" stroke-linejoin="round" stroke-linecap="butt" d="m20.30193 155.43155l0.25196838 -72.44094" fill-rule="evenodd"/><path fill="#000000" fill-opacity="0.0" d="m7.4488187 71.049515l13.13386 11.905518" fill-rule="evenodd"/><path stroke="#000000" stroke-width="1.0" stroke-linejoin="round" stroke-linecap="butt" d="m7.4488187 71.049515l13.13386 11.905518" fill-rule="evenodd"/><path fill="#000000" fill-opacity="0.0" d="m105.03199 10.496769l0 12.251968" fill-rule="evenodd"/><path stroke="#000000" stroke-width="1.0" stroke-linejoin="round" stroke-linecap="butt" d="m105.03199 10.496769l0 12.251968" fill-rule="evenodd"/><path fill="#000000" fill-opacity="0.0" d="m125.30636 22.91082l0 12.125984" fill-rule="evenodd"/><path stroke="#000000" stroke-width="1.0" stroke-linejoin="round" stroke-linecap="butt" d="m125.30636 22.91082l0 12.125984" fill-rule="evenodd"/><path fill="#000000" fill-opacity="0.0" d="m143.68639 35.072174l0 12.031498" fill-rule="evenodd"/><path stroke="#000000" stroke-width="1.0" stroke-linejoin="round" stroke-linecap="butt" d="m143.68639 35.072174l0 12.031498" fill-rule="evenodd"/><path fill="#000000" fill-opacity="0.0" d="m113.818306 34.945827l0 12.125984" fill-rule="evenodd"/><path stroke="#000000" stroke-width="1.0" stroke-linejoin="round" stroke-linecap="butt" d="m113.818306 34.945827l0 12.125984" fill-rule="evenodd"/><path fill="#000000" fill-opacity="0.0" d="m97.59938 47.10718l0 12.031498" fill-rule="evenodd"/><path stroke="#000000" stroke-width="1.0" stroke-linejoin="round" stroke-linecap="butt" d="m97.59938 47.10718l0 12.031498" fill-rule="evenodd"/><path fill="#000000" fill-opacity="0.0" d="m135.84795 47.044674l0 11.90551" fill-rule="evenodd"/><path stroke="#000000" stroke-width="1.0" stroke-linejoin="round" stroke-linecap="butt" d="m135.84795 47.044674l0 11.90551" fill-rule="evenodd"/><path fill="#000000" fill-opacity="0.0" d="m139.49757 22.658123l0.12597656 -12.031496" fill-rule="evenodd"/><path stroke="#000000" stroke-width="1.0" stroke-linejoin="round" stroke-linecap="butt" d="m139.49757 22.658123l0.12597656 -12.031496" fill-rule="evenodd"/><path fill="#000000" fill-opacity="0.0" d="m124.090294 59.14219l0 11.90551" fill-rule="evenodd"/><path stroke="#000000" stroke-width="1.0" stroke-linejoin="round" stroke-linecap="butt" d="m124.090294 59.14219l0 11.90551" fill-rule="evenodd"/><path fill="#000000" fill-opacity="0.0" d="m109.35704 71.30354l0 11.653542" fill-rule="evenodd"/><path stroke="#000000" stroke-width="1.0" stroke-linejoin="round" stroke-linecap="butt" d="m109.35704 71.30354l0 11.653542" fill-rule="evenodd"/><path fill="#000000" fill-opacity="0.0" d="m143.95741 71.17719l0 11.653549" fill-rule="evenodd"/><path stroke="#000000" stroke-width="1.0" stroke-linejoin="round" stroke-linecap="butt" d="m143.95741 71.17719l0 11.653549" fill-rule="evenodd"/><g filter="url(#shadowFilter-p.1)"><use xlink:href="#p.1" transform="matrix(1.0 0.0 0.0 1.0 0.0 2.0)"/></g><defs><filter id="shadowFilter-p.1" filterUnits="userSpaceOnUse"><feGaussianBlur in="SourceAlpha" stdDeviation="2.0" result="blur"/><feComponentTransfer in="blur" color-interpolation-filters="sRGB"><feFuncR type="linear" slope="0" intercept="1.0"/><feFuncG type="linear" slope="0" intercept="0.0"/><feFuncB type="linear" slope="0" intercept="0.0"/><feFuncA type="linear" slope="0.58" intercept="0"/></feComponentTransfer></filter></defs><g id="p.1"><path fill="#000000" fill-opacity="0.0" d="m181.55643 10.349081l0.22047424 145.10237" fill-rule="evenodd"/><path stroke="#cc0000" stroke-width="4.0" stroke-linejoin="round" stroke-linecap="butt" d="m181.55643 10.349081l0.22047424 145.10237" fill-rule="evenodd"/></g><path fill="#000000" fill-opacity="0.0" d="m185.61679 18.475065l321.44882 0l0 70.078735l-321.44882 0z" fill-rule="evenodd"/><path fill="#cc0000" d="m220.19492 38.756317l-0.328125 0q-1.0 -0.296875 -2.625 -0.59375q-1.625 -0.3125 -2.875 -0.3125q-3.9375 0 -5.71875 1.75q-1.765625 1.734375 -1.765625 6.28125l0 1.234375l11.03125 0l0 5.140625l-10.828125 0l0 31.21875l-6.125 0l0 -31.21875l-4.125 0l0 -5.140625l4.125 0l0 -1.203125q0 -6.46875 3.21875 -9.9375q3.234375 -3.46875 9.3125 -3.46875q2.046875 0 3.6875 0.203125q1.65625 0.1875 3.015625 0.453125l0 5.59375zm34.308838 27.171875l-26.78125 0q0 3.359375 1.0 5.859375q1.015625 2.484375 2.765625 4.078125q1.703125 1.5625 4.015625 2.34375q2.328125 0.78125 5.140625 0.78125q3.703125 0 7.453125 -1.484375q3.765625 -1.484375 5.359375 -2.921875l0.328125 0l0 6.671875q-3.09375 1.3125 -6.3125 2.1875q-3.21875 0.875 -6.765625 0.875q-9.046875 0 -14.125 -4.890625q-5.078125 -4.90625 -5.078125 -13.921875q0 -8.921875 4.859375 -14.15625q4.875 -5.234375 12.8125 -5.234375q7.359375 0 11.34375 4.296875q3.984375 4.296875 3.984375 12.203125l0 3.3125zm-5.953125 -4.6875q-0.03125 -4.8125 -2.4375 -7.4375q-2.390625 -2.640625 -7.265625 -2.640625q-4.90625 0 -7.828125 2.890625q-2.90625 2.890625 -3.296875 7.1875l20.828125 0zm37.91046 -7.453125l-0.328125 0q-1.359375 -0.328125 -2.65625 -0.46875q-1.28125 -0.140625 -3.03125 -0.140625q-2.828125 0 -5.46875 1.25q-2.640625 1.25 -5.078125 3.234375l0 25.8125l-6.125 0l0 -36.359375l6.125 0l0 5.375q3.640625 -2.921875 6.421875 -4.140625q2.78125 -1.234375 5.6875 -1.234375q1.59375 0 2.3125 0.09375q0.71875 0.078125 2.140625 0.296875l0 6.28125zm12.3367 -12.75l-6.890625 0l0 -6.34375l6.890625 0l0 6.34375zm-0.390625 42.4375l-6.109375 0l0 -36.359375l6.109375 0l0 36.359375zm38.478912 0l-29.359375 0l0 -4.53125l21.1875 -26.71875l-20.734375 0l0 -5.109375l28.34375 0l0 4.359375l-21.28125 26.828125l21.84375 0l0 5.171875zm36.89557 0l-6.078125 0l0 -3.875q-0.8125 0.5625 -2.203125 1.5625q-1.375 0.984375 -2.6875 1.5625q-1.515625 0.75 -3.515625 1.25q-1.984375 0.515625 -4.640625 0.515625q-4.921875 0 -8.34375 -3.25q-3.40625 -3.265625 -3.40625 -8.3125q0 -4.125 1.765625 -6.671875q1.78125 -2.5625 5.0625 -4.03125q3.328125 -1.46875 7.96875 -1.984375q4.65625 -0.53125 10.0 -0.78125l0 -0.953125q0 -2.078125 -0.734375 -3.4375q-0.734375 -1.375 -2.09375 -2.15625q-1.3125 -0.75 -3.140625 -1.0q-1.8125 -0.265625 -3.796875 -0.265625q-2.40625 0 -5.375 0.640625q-2.953125 0.625 -6.109375 1.828125l-0.328125 0l0 -6.21875q1.78125 -0.484375 5.171875 -1.0625q3.390625 -0.59375 6.671875 -0.59375q3.84375 0 6.6875 0.640625q2.84375 0.625 4.9375 2.15625q2.046875 1.5 3.109375 3.875q1.078125 2.375 1.078125 5.890625l0 24.671875zm-6.078125 -8.953125l0 -10.125q-2.796875 0.171875 -6.59375 0.5q-3.796875 0.3125 -6.0 0.9375q-2.640625 0.75 -4.265625 2.328125q-1.625 1.578125 -1.625 4.34375q0 3.125 1.875 4.703125q1.890625 1.578125 5.765625 1.578125q3.21875 0 5.890625 -1.25q2.671875 -1.25 4.953125 -3.015625zm29.189056 -33.484375l-6.890625 0l0 -6.34375l6.890625 0l0 6.34375zm-0.390625 43.3125q0 6.390625 -3.25 9.640625q-3.25 3.25 -8.71875 3.25q-1.3125 0 -3.4375 -0.265625q-2.125 -0.25 -3.5625 -0.640625l0 -5.828125l0.328125 0q0.90625 0.359375 2.453125 0.8125q1.546875 0.453125 3.015625 0.453125q2.34375 0 3.765625 -0.65625q1.4375 -0.640625 2.15625 -1.9375q0.71875 -1.3125 0.921875 -3.15625q0.21875 -1.828125 0.21875 -4.46875l0 -29.296875l-7.59375 0l0 -5.140625l13.703125 0l0 37.234375z" fill-rule="nonzero"/><path fill="#000000" fill-opacity="0.0" d="m189.76903 98.05774l568.4094 0l0 46.4252l-568.4094 0z" fill-rule="evenodd"/><path fill="#ffffff" d="m214.95653 139.05774l-14.1875 0l0 -4.296875l3.96875 0l0 -15.640625l-3.96875 0l0 -4.296875l14.1875 0l0 4.296875l-3.96875 0l0 15.640625l3.96875 0l0 4.296875zm26.818771 0l-6.25 0l0 -10.671875l-9.21875 0l0 10.671875l-6.25 0l0 -24.234375l6.25 0l0 8.875l9.21875 0l0 -8.875l6.25 0l0 24.234375zm19.784058 -16.8125q0 -0.90625 -0.375 -1.5625q-0.375 -0.65625 -1.296875 -1.015625q-0.625 -0.265625 -1.484375 -0.3125q-0.84375 -0.0625 -1.953125 -0.0625l-2.265625 0l0 6.515625l1.921875 0q1.484375 0 2.5 -0.140625q1.015625 -0.15625 1.6875 -0.671875q0.65625 -0.5 0.953125 -1.109375q0.3125 -0.609375 0.3125 -1.640625zm9.734375 16.8125l-7.625 0l-6.609375 -8.890625l-2.875 0l0 8.890625l-6.21875 0l0 -24.234375l10.484375 0q2.140625 0 3.6875 0.25q1.546875 0.234375 2.890625 1.0625q1.375 0.8125 2.171875 2.109375q0.8125 1.28125 0.8125 3.234375q0 2.6875 -1.25 4.390625q-1.234375 1.6875 -3.546875 2.8125l8.078125 10.375zm34.86786 -7.421875q0 1.765625 -0.71875 3.15625q-0.703125 1.375 -1.9375 2.28125q-1.4375 1.078125 -3.15625 1.53125q-1.703125 0.453125 -4.34375 0.453125l-10.578125 0l0 -24.234375l9.40625 0q2.921875 0 4.28125 0.203125q1.359375 0.1875 2.703125 0.859375q1.375 0.703125 2.046875 1.890625q0.6875 1.171875 0.6875 2.6875q0 1.75 -0.9375 3.09375q-0.921875 1.34375 -2.609375 2.09375l0 0.125q2.375 0.46875 3.765625 1.953125q1.390625 1.484375 1.390625 3.90625zm-8.015625 -9.953125q0 -0.609375 -0.296875 -1.203125q-0.296875 -0.609375 -1.0625 -0.90625q-0.6875 -0.25 -1.703125 -0.265625q-1.015625 -0.03125 -2.859375 -0.03125l-0.578125 0l0 5.125l0.96875 0q1.484375 0 2.515625 -0.046875q1.046875 -0.0625 1.65625 -0.328125q0.84375 -0.375 1.09375 -0.96875q0.265625 -0.59375 0.265625 -1.375zm1.53125 9.859375q0 -1.15625 -0.453125 -1.78125q-0.4375 -0.625 -1.515625 -0.9375q-0.734375 -0.21875 -2.015625 -0.234375q-1.28125 -0.015625 -2.6875 -0.015625l-1.359375 0l0 6.046875l0.453125 0q2.640625 0 3.765625 -0.015625q1.140625 -0.015625 2.109375 -0.421875q0.96875 -0.40625 1.328125 -1.078125q0.375 -0.6875 0.375 -1.5625zm34.699158 -4.59375q0 5.796875 -3.328125 9.203125q-3.3125 3.40625 -9.171875 3.40625q-5.84375 0 -9.171875 -3.40625q-3.3125 -3.40625 -3.3125 -9.203125q0 -5.84375 3.3125 -9.234375q3.328125 -3.390625 9.171875 -3.390625q5.828125 0 9.15625 3.390625q3.34375 3.390625 3.34375 9.234375zm-8.28125 6.140625q0.90625 -1.109375 1.34375 -2.609375q0.4375 -1.515625 0.4375 -3.546875q0 -2.171875 -0.5 -3.703125q-0.5 -1.53125 -1.3125 -2.484375q-0.828125 -0.96875 -1.921875 -1.40625q-1.078125 -0.4375 -2.25 -0.4375q-1.1875 0 -2.234375 0.421875q-1.046875 0.421875 -1.921875 1.390625q-0.828125 0.921875 -1.34375 2.53125q-0.5 1.59375 -0.5 3.703125q0 2.171875 0.484375 3.6875q0.5 1.515625 1.3125 2.484375q0.828125 0.953125 1.90625 1.421875q1.09375 0.453125 2.296875 0.453125q1.203125 0 2.296875 -0.46875q1.09375 -0.46875 1.90625 -1.4375zm35.94153 -6.125q0 3.390625 -1.546875 6.0625q-1.546875 2.671875 -3.90625 4.109375q-1.765625 1.078125 -3.890625 1.5q-2.109375 0.421875 -5.0 0.421875l-8.546875 0l0 -24.234375l8.78125 0q2.96875 0 5.109375 0.5q2.15625 0.5 3.625 1.40625q2.5 1.53125 3.9375 4.125q1.4375 2.59375 1.4375 6.109375zm-6.453125 -0.046875q0 -2.390625 -0.875 -4.09375q-0.875 -1.703125 -2.75 -2.65625q-0.96875 -0.46875 -1.96875 -0.640625q-1.0 -0.171875 -3.015625 -0.171875l-1.578125 0l0 15.15625l1.578125 0q2.234375 0 3.265625 -0.203125q1.046875 -0.203125 2.03125 -0.734375q1.71875 -0.96875 2.515625 -2.609375q0.796875 -1.640625 0.796875 -4.046875zm28.758698 12.140625l-17.53125 0l0 -24.234375l17.53125 0l0 4.6875l-11.3125 0l0 4.1875l10.5 0l0 4.6875l-10.5 0l0 5.984375l11.3125 0l0 4.6875zm27.266632 0l-6.015625 0l-10.296875 -16.625l0 16.625l-5.71875 0l0 -24.234375l7.46875 0l8.828125 13.890625l0 -13.890625l5.734375 0l0 24.234375zm23.655762 0l-17.46875 0l0 -24.234375l6.25 0l0 19.546875l11.21875 0l0 4.6875zm21.299408 0l-17.53125 0l0 -24.234375l17.53125 0l0 4.6875l-11.3125 0l0 4.1875l10.5 0l0 4.6875l-10.5 0l0 5.984375l11.3125 0l0 4.6875zm26.672913 -1.390625q-1.640625 0.640625 -4.328125 1.265625q-2.671875 0.625 -5.34375 0.625q-6.1875 0 -9.6875 -3.359375q-3.5 -3.359375 -3.5 -9.28125q0 -5.640625 3.53125 -9.09375q3.53125 -3.46875 9.84375 -3.46875q2.390625 0 4.5625 0.4375q2.171875 0.421875 4.8125 1.703125l0 5.6875l-0.6875 0q-0.46875 -0.34375 -1.34375 -0.96875q-0.875 -0.625 -1.6875 -1.0625q-0.953125 -0.53125 -2.21875 -0.890625q-1.25 -0.375 -2.671875 -0.375q-1.65625 0 -3.015625 0.484375q-1.34375 0.484375 -2.421875 1.5q-1.015625 0.96875 -1.609375 2.484375q-0.59375 1.5 -0.59375 3.46875q0 4.015625 2.125 6.15625q2.140625 2.125 6.296875 2.125q0.359375 0 0.78125 -0.015625q0.4375 -0.015625 0.796875 -0.046875l0 -4.75l-4.828125 0l0 -4.578125l11.1875 0l0 11.953125zm23.124023 1.390625l-17.53125 0l0 -24.234375l17.53125 0l0 4.6875l-11.3125 0l0 4.1875l10.5 0l0 4.6875l-10.5 0l0 5.984375l11.3125 0l0 4.6875zm18.829102 -16.8125q0 -0.90625 -0.375 -1.5625q-0.375 -0.65625 -1.296875 -1.015625q-0.625 -0.265625 -1.484375 -0.3125q-0.84375 -0.0625 -1.953125 -0.0625l-2.265625 0l0 6.515625l1.921875 0q1.484375 0 2.5 -0.140625q1.015625 -0.15625 1.6875 -0.671875q0.65625 -0.5 0.953125 -1.109375q0.3125 -0.609375 0.3125 -1.640625zm9.734375 16.8125l-7.625 0l-6.609375 -8.890625l-2.875 0l0 8.890625l-6.2187195 0l0 -24.234375l10.4843445 0q2.140625 0 3.6875 0.25q1.546875 0.234375 2.890625 1.0625q1.375 0.8125 2.171875 2.109375q0.8125 1.28125 0.8125 3.234375q0 2.6875 -1.25 4.390625q-1.234375 1.6875 -3.546875 2.8125l8.078125 10.375zm13.85144 -8.421875l-12.40625 0l0 -4.6875l12.40625 0l0 4.6875zm24.278076 0.8125q0 3.578125 -3.03125 5.8125q-3.03125 2.234375 -8.234375 2.234375q-3.015625 0 -5.25 -0.53125q-2.234375 -0.53125 -4.1875 -1.34375l0 -5.796875l0.671875 0q1.9375 1.53125 4.328125 2.375q2.40625 0.828125 4.625 0.828125q0.578125 0 1.5 -0.09375q0.921875 -0.109375 1.515625 -0.328125q0.71875 -0.296875 1.171875 -0.734375q0.46875 -0.4375 0.46875 -1.3125q0 -0.796875 -0.671875 -1.375q-0.671875 -0.578125 -1.984375 -0.875q-1.359375 -0.328125 -2.890625 -0.609375q-1.515625 -0.296875 -2.84375 -0.734375q-3.0625 -0.984375 -4.40625 -2.6875q-1.34375 -1.703125 -1.34375 -4.21875q0 -3.390625 3.03125 -5.53125q3.03125 -2.140625 7.8125 -2.140625q2.390625 0 4.71875 0.46875q2.34375 0.453125 4.046875 1.15625l0 5.578125l-0.671875 0q-1.46875 -1.171875 -3.59375 -1.953125q-2.109375 -0.796875 -4.328125 -0.796875q-0.78125 0 -1.5625 0.109375q-0.765625 0.109375 -1.484375 0.40625q-0.625 0.234375 -1.09375 0.734375q-0.453125 0.5 -0.453125 1.140625q0 0.953125 0.734375 1.46875q0.734375 0.515625 2.765625 0.9375q1.34375 0.265625 2.5625 0.53125q1.234375 0.265625 2.640625 0.71875q2.796875 0.90625 4.109375 2.484375q1.328125 1.5625 1.328125 4.078125zm21.818604 7.609375l-17.53125 0l0 -24.234375l17.53125 0l0 4.6875l-11.3125 0l0 4.1875l10.5 0l0 4.6875l-10.5 0l0 5.984375l11.3125 0l0 4.6875zm18.829102 -16.8125q0 -0.90625 -0.375 -1.5625q-0.375 -0.65625 -1.296875 -1.015625q-0.625 -0.265625 -1.484375 -0.3125q-0.84375 -0.0625 -1.953125 -0.0625l-2.265625 0l0 6.515625l1.921875 0q1.484375 0 2.5 -0.140625q1.015625 -0.15625 1.6875 -0.671875q0.65625 -0.5 0.953125 -1.109375q0.3125 -0.609375 0.3125 -1.640625zm9.734375 16.8125l-7.625 0l-6.609375 -8.890625l-2.875 0l0 8.890625l-6.21875 0l0 -24.234375l10.484375 0q2.140625 0 3.6875 0.25q1.546875 0.234375 2.890625 1.0625q1.375 0.8125 2.171875 2.109375q0.8125 1.28125 0.8125 3.234375q0 2.6875 -1.25 4.390625q-1.234375 1.6875 -3.546875 2.8125l8.078125 10.375zm24.710815 -24.234375l-8.84375 24.234375l-6.984375 0l-8.84375 -24.234375l6.5625 0l5.859375 17.03125l5.859375 -17.03125l6.390625 0zm16.576721 24.234375l-14.1875 0l0 -4.296875l3.96875 0l0 -15.640625l-3.96875 0l0 -4.296875l14.1875 0l0 4.296875l-3.96875 0l0 15.640625l3.96875 0l0 4.296875zm16.053162 0.46875q-2.703125 0 -5.0 -0.796875q-2.28125 -0.796875 -3.921875 -2.375q-1.640625 -1.578125 -2.546875 -3.9375q-0.90625 -2.359375 -0.90625 -5.453125q0 -2.875 0.859375 -5.21875q0.875 -2.34375 2.515625 -4.015625q1.578125 -1.625 3.90625 -2.5q2.34375 -0.875 5.109375 -0.875q1.53125 0 2.75 0.171875q1.234375 0.171875 2.28125 0.453125q1.078125 0.296875 1.96875 0.6875q0.890625 0.375 1.5625 0.703125l0 5.875l-0.71875 0q-0.453125 -0.390625 -1.15625 -0.921875q-0.6875 -0.546875 -1.5625 -1.0625q-0.890625 -0.515625 -1.9375 -0.875q-1.046875 -0.359375 -2.234375 -0.359375q-1.3125 0 -2.5 0.421875q-1.1875 0.40625 -2.203125 1.359375q-0.953125 0.9375 -1.546875 2.46875q-0.59375 1.53125 -0.59375 3.703125q0 2.28125 0.640625 3.8125q0.640625 1.53125 1.625 2.40625q0.984375 0.890625 2.203125 1.28125q1.21875 0.375 2.40625 0.375q1.140625 0 2.25 -0.328125q1.125 -0.34375 2.0625 -0.9375q0.796875 -0.46875 1.484375 -1.0q0.6875 -0.546875 1.125 -0.9375l0.65625 0l0 5.796875q-0.921875 0.40625 -1.75 0.765625q-0.828125 0.359375 -1.734375 0.609375q-1.1875 0.34375 -2.234375 0.515625q-1.046875 0.1875 -2.859375 0.1875zm30.695435 -0.46875l-17.53125 0l0 -24.234375l17.53125 0l0 4.6875l-11.3125 0l0 4.1875l10.5 0l0 4.6875l-10.5 0l0 5.984375l11.3125 0l0 4.6875z" fill-rule="nonzero"/></g></svg>